<?xml version="1.0" encoding="UTF-8" standalone="no"?>
<!DOCTYPE svg PUBLIC "-//W3C//DTD SVG 1.1//EN" "http://www.w3.org/Graphics/SVG/1.1/DTD/svg11.dtd">
<!-- Generated by Microsoft Visio, SVG Export api.svg Page-1 -->
<svg xmlns="http://www.w3.org/2000/svg" xmlns:xlink="http://www.w3.org/1999/xlink" xmlns:ev="http://www.w3.org/2001/xml-events"
		xmlns:v="http://schemas.microsoft.com/visio/2003/SVGExtensions/" width="2.94515in" height="1.57603in"
		viewBox="0 0 212.051 113.474" xml:space="preserve" color-interpolation-filters="sRGB" class="st11">
	<v:documentProperties v:langID="1033" v:viewMarkup="false"/>

	<style type="text/css">
	<![CDATA[
		.st1 {visibility:visible}
		.st2 {fill:none;filter:url(#filter_2);stroke:#5b9bd5;stroke-opacity:0.22}
		.st3 {stroke:#c7c8c8;stroke-width:0.25}
		.st4 {fill:none;stroke:none;stroke-width:0.25}
		.st5 {fill:#538135;font-family:Calibri;font-size:0.833336em}
		.st6 {fill:#5b9bd5;fill-opacity:0.25;filter:url(#filter_2);stroke:#5b9bd5;stroke-opacity:0.25}
		.st7 {fill:url(#grad0-18);stroke:#40709c;stroke-width:0.75}
		.st8 {fill:#feffff;font-family:Calibri;font-size:0.833336em}
		.st9 {fill:#70ad47;fill-opacity:0.25;filter:url(#filter_2);stroke:#70ad47;stroke-opacity:0.25}
		.st10 {fill:#61973d;stroke:#507e31;stroke-width:0.75}
		.st11 {fill:none;fill-rule:evenodd;font-size:12px;overflow:visible;stroke-linecap:square;stroke-miterlimit:3}
	]]>
	</style>

	<defs id="Patterns_And_Gradients">
		<linearGradient id="grad0-18" x1="0" y1="0" x2="1" y2="0" gradientTransform="rotate(250 0.5 0.5)">
			<stop offset="0" stop-color="#4f87bb" stop-opacity="1"/>
			<stop offset="0.48" stop-color="#4f87bb" stop-opacity="1"/>
			<stop offset="0.82" stop-color="#5b9bd5" stop-opacity="1"/>
		</linearGradient>
	</defs>
	<defs id="Filters">
		<filter id="filter_2">
			<feGaussianBlur stdDeviation="2"/>
		</filter>
	</defs>
	<g v:mID="0" v:index="1" v:groupContext="foregroundPage">
		<title>Page-1</title>
		<v:pageProperties v:drawingScale="0.0393701" v:pageScale="0.0393701" v:drawingUnits="24" v:shadowOffsetX="8.50394"
				v:shadowOffsetY="-8.50394"/>
		<g id="shape5-1" v:mID="5" v:groupContext="shape" transform="translate(116.12,-5.3478)">
			<title>Right Brace</title>
			<v:userDefs>
				<v:ud v:nameU="visVersion" v:prompt="" v:val="VT0(15):26"/>
			</v:userDefs>
			<g id="shadow5-2" v:groupContext="shadow" v:shadowOffsetX="0.345598" v:shadowOffsetY="-1.97279" v:shadowType="1"
					transform="matrix(1,0,0,1,0.345598,1.97279)" class="st1">
				<path d="M0 113.47 A30.8993 11.5062 -180 0 0 11.54 106.6 L11.54 79.1 L23.08 79.1 L11.54 79.1 L11.54 51.59 A30.8993
							 11.5062 -180 0 0 -0 44.72" class="st2"/>
			</g>
			<path d="M0 113.47 A30.8993 11.5062 -180 0 0 11.54 106.6 L11.54 79.1 L23.08 79.1 L11.54 79.1 L11.54 51.59 A30.8993 11.5062
						 -180 0 0 -0 44.72" class="st3"/>
		</g>
		<g id="shape6-9" v:mID="6" v:groupContext="shape" transform="translate(141.508,-27.411)">
			<title>Sheet.6</title>
			<desc>Google Cast</desc>
			<v:textBlock v:margins="rect(4,4,4,4)" v:tabSpace="42.5197"/>
			<v:textRect cx="35.1464" cy="101.16" width="70.3" height="24.6287"/>
			<rect x="0" y="88.8457" width="70.2928" height="24.6287" class="st4"/>
			<text x="10.91" y="104.16" class="st5" v:langID="1033"><v:paragraph v:horizAlign="1"/><v:tabList/>Google Cast</text>		</g>
		<g id="shape8-12" v:mID="8" v:groupContext="shape" transform="translate(3.02922,-77.1815)">
			<title>Round Corner Rectangle</title>
			<desc>Vimeo Cast API</desc>
			<v:userDefs>
				<v:ud v:nameU="CTypeTopLeftSnip" v:prompt="" v:val="VT0(0):5"/>
				<v:ud v:nameU="CTypeTopRightSnip" v:prompt="" v:val="VT0(0):5"/>
				<v:ud v:nameU="CTypeBotLeftSnip" v:prompt="" v:val="VT0(0):5"/>
				<v:ud v:nameU="CTypeBotRightSnip" v:prompt="" v:val="VT0(0):5"/>
				<v:ud v:nameU="CornerLockHoriz" v:prompt="" v:val="VT0(0):5"/>
				<v:ud v:nameU="CornerLockVert" v:prompt="" v:val="VT0(0):5"/>
				<v:ud v:nameU="CornerLockDiag" v:prompt="" v:val="VT0(0):5"/>
				<v:ud v:nameU="TopLeftOffset" v:prompt="" v:val="VT0(0.15748031496063):24"/>
				<v:ud v:nameU="TopRightOffset" v:prompt="" v:val="VT0(0.15748031496063):24"/>
				<v:ud v:nameU="BotLeftOffset" v:prompt="" v:val="VT0(0.15748031496063):24"/>
				<v:ud v:nameU="BotRightOffset" v:prompt="" v:val="VT0(0.15748031496063):24"/>
				<v:ud v:nameU="visVersion" v:prompt="" v:val="VT0(15):26"/>
				<v:ud v:nameU="TopLeftOffset" v:prompt="" v:val="VT0(0.15386541875282):1"/>
				<v:ud v:nameU="TopRightOffset" v:prompt="" v:val="VT0(0.15386541875282):1"/>
				<v:ud v:nameU="BotLeftOffset" v:prompt="" v:val="VT0(0.15386541875282):1"/>
				<v:ud v:nameU="BotRightOffset" v:prompt="" v:val="VT0(0.15386541875282):1"/>
			</v:userDefs>
			<v:textBlock v:margins="rect(4,4,4,4)" v:tabSpace="42.5197"/>
			<v:textRect cx="55.3916" cy="96.0291" width="110.79" height="34.8907"/>
			<g id="shadow8-13" v:groupContext="shadow" v:shadowOffsetX="0.345598" v:shadowOffsetY="-1.97279" v:shadowType="1"
					transform="matrix(1,0,0,1,0.345598,1.97279)" class="st1">
				<path d="M11.08 113.47 L99.7 113.47 A11.0781 11.0781 -180 0 0 110.78 102.4 L110.78 89.66 A11.0781 11.0781 -180 0
							 0 99.7 78.58 L11.08 78.58 A11.0781 11.0781 -180 0 0 0 89.66 L0 102.4 A11.0781 11.0781 -180 0 0 11.08
							 113.47 Z" class="st6"/>
			</g>
			<path d="M11.08 113.47 L99.7 113.47 A11.0781 11.0781 -180 0 0 110.78 102.4 L110.78 89.66 A11.0781 11.0781 -180 0 0 99.7
						 78.58 L11.08 78.58 A11.0781 11.0781 -180 0 0 0 89.66 L0 102.4 A11.0781 11.0781 -180 0 0 11.08 113.47 Z"
					class="st7"/>
			<text x="24.6" y="99.03" class="st8" v:langID="1033"><v:paragraph v:horizAlign="1"/><v:tabList/>Vimeo Cast API</text>		</g>
		<g id="shape12-20" v:mID="12" v:groupContext="shape" transform="translate(3.02922,-41.2647)">
			<title>Round Corner Rectangle.12</title>
			<desc>Framework API</desc>
			<v:userDefs>
				<v:ud v:nameU="CTypeTopLeftSnip" v:prompt="" v:val="VT0(0):5"/>
				<v:ud v:nameU="CTypeTopRightSnip" v:prompt="" v:val="VT0(0):5"/>
				<v:ud v:nameU="CTypeBotLeftSnip" v:prompt="" v:val="VT0(0):5"/>
				<v:ud v:nameU="CTypeBotRightSnip" v:prompt="" v:val="VT0(0):5"/>
				<v:ud v:nameU="CornerLockHoriz" v:prompt="" v:val="VT0(0):5"/>
				<v:ud v:nameU="CornerLockVert" v:prompt="" v:val="VT0(0):5"/>
				<v:ud v:nameU="CornerLockDiag" v:prompt="" v:val="VT0(0):5"/>
				<v:ud v:nameU="TopLeftOffset" v:prompt="" v:val="VT0(0.15748031496063):24"/>
				<v:ud v:nameU="TopRightOffset" v:prompt="" v:val="VT0(0.15748031496063):24"/>
				<v:ud v:nameU="BotLeftOffset" v:prompt="" v:val="VT0(0.15748031496063):24"/>
				<v:ud v:nameU="BotRightOffset" v:prompt="" v:val="VT0(0.15748031496063):24"/>
				<v:ud v:nameU="visVersion" v:prompt="" v:val="VT0(15):26"/>
				<v:ud v:nameU="TopLeftOffset" v:prompt="" v:val="VT0(0.15386541875282):1"/>
				<v:ud v:nameU="TopRightOffset" v:prompt="" v:val="VT0(0.15386541875282):1"/>
				<v:ud v:nameU="BotLeftOffset" v:prompt="" v:val="VT0(0.15386541875282):1"/>
				<v:ud v:nameU="BotRightOffset" v:prompt="" v:val="VT0(0.15386541875282):1"/>
			</v:userDefs>
			<v:textBlock v:margins="rect(4,4,4,4)" v:tabSpace="42.5197"/>
			<v:textRect cx="55.3916" cy="96.0291" width="110.79" height="34.8907"/>
			<g id="shadow12-21" v:groupContext="shadow" v:shadowOffsetX="0.345598" v:shadowOffsetY="-1.97279" v:shadowType="1"
					transform="matrix(1,0,0,1,0.345598,1.97279)" class="st1">
				<path d="M11.08 113.47 L99.7 113.47 A11.0781 11.0781 -180 0 0 110.78 102.4 L110.78 89.66 A11.0781 11.0781 -180 0
							 0 99.7 78.58 L11.08 78.58 A11.0781 11.0781 -180 0 0 0 89.66 L0 102.4 A11.0781 11.0781 -180 0 0 11.08
							 113.47 Z" class="st9"/>
			</g>
			<path d="M11.08 113.47 L99.7 113.47 A11.0781 11.0781 -180 0 0 110.78 102.4 L110.78 89.66 A11.0781 11.0781 -180 0 0 99.7
						 78.58 L11.08 78.58 A11.0781 11.0781 -180 0 0 0 89.66 L0 102.4 A11.0781 11.0781 -180 0 0 11.08 113.47 Z"
					class="st10"/>
			<text x="24.38" y="99.03" class="st8" v:langID="1033"><v:paragraph v:horizAlign="1"/><v:tabList/>Framework API</text>		</g>
		<g id="shape13-26" v:mID="13" v:groupContext="shape" transform="translate(3.02922,-5.3478)">
			<title>Round Corner Rectangle.13</title>
			<desc>Base API</desc>
			<v:userDefs>
				<v:ud v:nameU="CTypeTopLeftSnip" v:prompt="" v:val="VT0(0):5"/>
				<v:ud v:nameU="CTypeTopRightSnip" v:prompt="" v:val="VT0(0):5"/>
				<v:ud v:nameU="CTypeBotLeftSnip" v:prompt="" v:val="VT0(0):5"/>
				<v:ud v:nameU="CTypeBotRightSnip" v:prompt="" v:val="VT0(0):5"/>
				<v:ud v:nameU="CornerLockHoriz" v:prompt="" v:val="VT0(0):5"/>
				<v:ud v:nameU="CornerLockVert" v:prompt="" v:val="VT0(0):5"/>
				<v:ud v:nameU="CornerLockDiag" v:prompt="" v:val="VT0(0):5"/>
				<v:ud v:nameU="TopLeftOffset" v:prompt="" v:val="VT0(0.15748031496063):24"/>
				<v:ud v:nameU="TopRightOffset" v:prompt="" v:val="VT0(0.15748031496063):24"/>
				<v:ud v:nameU="BotLeftOffset" v:prompt="" v:val="VT0(0.15748031496063):24"/>
				<v:ud v:nameU="BotRightOffset" v:prompt="" v:val="VT0(0.15748031496063):24"/>
				<v:ud v:nameU="visVersion" v:prompt="" v:val="VT0(15):26"/>
				<v:ud v:nameU="TopLeftOffset" v:prompt="" v:val="VT0(0.15386541875282):1"/>
				<v:ud v:nameU="TopRightOffset" v:prompt="" v:val="VT0(0.15386541875282):1"/>
				<v:ud v:nameU="BotLeftOffset" v:prompt="" v:val="VT0(0.15386541875282):1"/>
				<v:ud v:nameU="BotRightOffset" v:prompt="" v:val="VT0(0.15386541875282):1"/>
			</v:userDefs>
			<v:textBlock v:margins="rect(4,4,4,4)" v:tabSpace="42.5197"/>
			<v:textRect cx="55.3916" cy="96.0291" width="110.79" height="34.8907"/>
			<g id="shadow13-27" v:groupContext="shadow" v:shadowOffsetX="0.345598" v:shadowOffsetY="-1.97279" v:shadowType="1"
					transform="matrix(1,0,0,1,0.345598,1.97279)" class="st1">
				<path d="M11.08 113.47 L99.7 113.47 A11.0781 11.0781 -180 0 0 110.78 102.4 L110.78 89.66 A11.0781 11.0781 -180 0
							 0 99.7 78.58 L11.08 78.58 A11.0781 11.0781 -180 0 0 0 89.66 L0 102.4 A11.0781 11.0781 -180 0 0 11.08
							 113.47 Z" class="st9"/>
			</g>
			<path d="M11.08 113.47 L99.7 113.47 A11.0781 11.0781 -180 0 0 110.78 102.4 L110.78 89.66 A11.0781 11.0781 -180 0 0 99.7
						 78.58 L11.08 78.58 A11.0781 11.0781 -180 0 0 0 89.66 L0 102.4 A11.0781 11.0781 -180 0 0 11.08 113.47 Z"
					class="st10"/>
			<text x="37.97" y="99.03" class="st8" v:langID="1033"><v:paragraph v:horizAlign="1"/><v:tabList/>Base API</text>		</g>
	</g>
</svg>
